<svg xmlns="http://www.w3.org/2000/svg" width="682.667" height="682.667" version="1" viewBox="0 0 512 512"><path d="M234.5 8.6c-37.7 3.9-65.7 12-96.2 27.9-23.2 12.1-41.7 25.7-60.8 44.9-20.2 20.3-33.7 39.3-46.5 65.1-12 24.2-19.5 48.2-23.7 75.5-2.4 16.1-2.4 52.9 0 69 6.9 44.6 24.2 85 51.7 120.2 8.3 10.7 28.1 30.5 39 39.2 35.3 27.9 75.3 45.2 121 52.3 16.2 2.5 56.8 2.5 73 0 30-4.6 54.9-12.7 80.7-26.2 23-11.9 41.5-25.6 60.3-44.5 38.6-38.5 62.2-85.7 70.7-141 2.4-16.1 2.4-52.9 0-69-6.9-44.6-24.2-85-51.7-120.2-8.3-10.7-28.1-30.5-39-39.2-35-27.7-75.4-45.3-120-52.1-10.1-1.6-49.4-2.8-58.5-1.9zm85.9 128.1c.3 1 12 50.4 26.1 109.8 14.1 59.4 25.8 109 26.2 110.3l.5 2.2-37.8-.2-37.8-.3-3.6-19-3.5-19-42.5-.3-42.6-.2-11 19.2-11 19.3-40.3.3-40.3.2 2-2.7c1-1.6 32.9-51.4 70.7-110.8 37.8-59.4 69.2-108.6 69.7-109.3.8-.9 9.6-1.2 37.9-1.2 34.1 0 36.8.1 37.3 1.7z"/><path d="M252.7 237.4c-8.6 15.1-15.7 27.7-15.7 28 0 .7 41.4.8 42.2.1.5-.5-9.5-54.1-10.3-54.9-.3-.3-7.6 11.8-16.2 26.8z"/></svg>