<svg version="1" xmlns="http://www.w3.org/2000/svg" width="682.667" height="682.667" viewBox="0 0 512.000000 512.000000"><path d="M87.7 9.6C47.8 16.8 16.6 46.7 7.4 86.5c-1.8 7.6-1.9 15.6-1.9 170s.1 162.4 1.9 170c8 34.6 33 62.3 66.3 73.4 15.7 5.3 11.1 5.2 185.9 4.8l161.9-.2 8-2.2c37.9-10.3 65.4-38.4 74.1-75.8 1.8-7.6 1.9-15.6 1.9-170s-.1-162.4-1.9-170c-8.7-37.4-36.2-65.5-74.1-75.8l-8-2.2-163-.1c-136.7-.2-164.3 0-170.8 1.2zM343.5 106c.5.7 48.4 201.6 65.4 274.2l1.8 7.8h-95.2l-4.5-24.3-4.5-24.2H198.6l-13.9 24.2-13.8 24.3h-50.6c-40.3 0-50.4-.3-49.6-1.3.5-.6 41.2-64.3 90.3-141.5L250.3 105h46.3c29.5 0 46.5.4 46.9 1z"/><path d="M278.9 199.5c-4.3 7.1-39.1 67.9-39.5 69-.5 1.3 3.1 1.5 26.5 1.5H293l-.5-2.3c-.4-1.6-11.1-58.7-12.8-67.7-.1-.8-.5-1.1-.8-.5z"/></svg>